# xmcd
# 
# Track frame offsets:
#     150
#     15685
#     32590
#     50802
#     66305
#     82942
#     101090
#     117272
#     134492
#     155107
#     171605
#     187972
#     205482
#     224267
#     242325
#     257845
#     273840
# 
# Disc length: 3907
# 
# Revision: 1
# Processed by: cddbd v1.5.2PL0 Copyright (c) Steve Scherf et al.
# Submitted via: BonkEnc v1.0
# 
DISCID=fc0f4111
DTITLE=Blue - One Love
DYEAR=0
DGENRE=
TTITLE0=One Love
TTITLE1=Riders
TTITLE2=Flexin'
TTITLE3=If You Come Back
TTITLE4=Sorry Seems To Be The Hardest Word featuring Elton John
TTITLE5=She Told Me
TTITLE6=Right Here Waiting
TTITLE7=U Make Me Wanna
TTITLE8=Ain't Got You
TTITLE9=Sweet Thing
TTITLE10=Supersexual
TTITLE11=Don't Treat Me Like A Fool
TTITLE12=Get Down
TTITLE13=Privacy
TTITLE14=Without You
TTITLE15=Invitation
TTITLE16=Like A Friend
EXTD=
EXTT0=
EXTT1=
EXTT2=
EXTT3=
EXTT4=
EXTT5=
EXTT6=
EXTT7=
EXTT8=
EXTT9=
EXTT10=
EXTT11=
EXTT12=
EXTT13=
EXTT14=
EXTT15=
EXTT16=
PLAYORDER=
